<?xml version="1.0" standalone="no"?>
<!DOCTYPE svg PUBLIC "-//W3C//DTD SVG 20010904//EN"
 "http://www.w3.org/TR/2001/REC-SVG-20010904/DTD/svg10.dtd">
<svg version="1.0" xmlns="http://www.w3.org/2000/svg"
 width="516.000000pt" height="182.000000pt" viewBox="0 0 516.000000 182.000000"
 preserveAspectRatio="xMidYMid meet">

<g transform="translate(0.000000,182.000000) scale(0.100000,-0.100000)"
fill="#ffffff" stroke="none">
<path d="M537 1352 l-277 -157 3 -319 2 -319 50 -28 50 -28 -2 307 c-2 169 1
312 5 319 6 9 423 251 443 256 3 1 106 -54 228 -123 l221 -125 -2 -260 -3
-259 -220 -126 -220 -126 -115 66 -115 66 0 259 0 259 115 66 115 66 115 -66
115 -66 3 -136 3 -136 -117 -67 c-64 -36 -122 -64 -130 -61 -11 4 -14 33 -14
140 l0 135 66 37 65 36 -50 29 c-28 16 -53 29 -56 29 -3 0 -35 -17 -71 -37
l-64 -37 2 -194 3 -194 66 -36 65 -36 172 99 172 98 0 193 0 192 -167 97 c-93
54 -172 98 -178 98 -5 0 -85 -44 -178 -98 l-167 -97 2 -316 3 -317 170 -96
170 -97 40 23 c22 13 146 84 275 158 l235 134 2 319 3 319 -212 120 c-116 66
-241 137 -278 157 l-66 37 -277 -157z"/>
<path d="M1570 855 l0 -285 95 0 95 0 0 285 0 285 -95 0 -95 0 0 -285z"/>
<path d="M1858 1033 l-68 -107 0 -133 c0 -73 2 -133 4 -133 4 0 282 407 319
467 6 10 -13 13 -90 13 l-98 0 -67 -107z"/>
<path d="M2150 1080 l0 -60 30 0 30 0 0 -165 0 -165 -30 0 -30 0 0 -60 0 -60
155 0 155 0 0 60 0 60 -30 0 -30 0 0 165 0 165 30 0 30 0 0 60 0 60 -155 0
-155 0 0 -60z"/>
<path d="M2522 1053 c18 -49 64 -176 103 -283 l70 -195 94 -3 c56 -2 92 1 89
7 -1 5 -46 133 -98 285 l-95 276 -97 0 -98 0 32 -87z"/>
<path d="M2866 987 l-46 -154 43 -122 43 -122 94 263 c51 145 95 269 97 276 4
9 -18 12 -89 12 l-95 0 -47 -153z"/>
<path d="M3250 1133 c0 -4 34 -93 74 -198 l73 -190 -51 -3 -52 -3 -17 -48 c-9
-27 -17 -51 -17 -55 0 -3 41 -6 91 -6 l91 0 11 -30 11 -30 97 0 97 0 -112 283
-112 282 -92 3 c-51 1 -92 -1 -92 -5z"/>
<path d="M3720 855 l0 -285 90 0 90 0 0 285 0 285 -90 0 -90 0 0 -285z"/>
<path d="M3940 1085 l0 -55 70 0 70 0 0 -90 0 -90 -70 0 -70 0 0 -55 c0 -55 0
-55 31 -55 16 0 28 4 25 9 -5 7 74 19 172 26 12 1 40 19 62 40 l40 39 0 85 0
85 -57 58 -57 58 -108 0 -108 0 0 -55z"/>
<path d="M4540 1133 c0 -4 33 -93 74 -198 l73 -190 -51 -3 -52 -3 -17 -48 c-9
-27 -17 -51 -17 -55 0 -3 41 -6 91 -6 l91 0 11 -30 11 -30 97 0 97 0 -113 283
-113 282 -91 3 c-50 1 -91 -1 -91 -5z"/>
<path d="M3140 887 c-45 -122 -91 -243 -101 -269 l-19 -48 93 0 92 0 53 158
52 159 -41 109 c-22 60 -42 110 -43 111 -2 2 -40 -97 -86 -220z"/>
<path d="M4430 887 c-45 -122 -91 -244 -101 -270 l-19 -48 92 3 91 3 52 155
52 155 -39 110 c-21 60 -40 111 -42 112 -1 2 -40 -97 -86 -220z"/>
<path d="M1913 780 l-53 -80 32 -65 32 -65 104 0 103 0 -75 142 c-41 79 -79
144 -83 145 -4 1 -32 -33 -60 -77z"/>
<path d="M4165 750 c-3 -5 -40 -10 -81 -10 -42 0 -74 -4 -74 -10 0 -5 17 -43
37 -85 l37 -75 98 0 c54 0 98 3 98 6 0 10 -91 174 -100 179 -5 3 -11 1 -15 -5z"/>
</g>
</svg>
