<?xml version="1.0" standalone="no"?>
<!DOCTYPE svg PUBLIC "-//W3C//DTD SVG 20010904//EN"
 "http://www.w3.org/TR/2001/REC-SVG-20010904/DTD/svg10.dtd">
<svg version="1.0" xmlns="http://www.w3.org/2000/svg"
 width="723.000000pt" height="252.000000pt" viewBox="0 0 723.000000 252.000000"
 preserveAspectRatio="xMidYMid meet">

<g transform="translate(0.000000,252.000000) scale(0.100000,-0.100000)"
fill="#5850ec" stroke="none">
<path d="M638 2077 l-407 -232 0 -470 -1 -470 75 -43 c41 -23 76 -42 77 -42 2
0 2 206 0 457 -1 252 1 463 6 470 4 6 155 95 334 197 l328 186 330 -188 330
-187 0 -380 0 -380 -330 -188 -330 -189 -175 99 -175 98 3 380 2 380 173 97
172 98 173 -99 172 -99 2 -198 3 -199 -174 -98 c-231 -130 -216 -138 -216 118
l0 194 96 56 c108 64 108 54 2 114 l-58 32 -95 -53 -95 -53 0 -290 0 -290 95
-54 95 -53 238 136 c130 75 243 140 251 145 11 7 13 63 12 296 l-1 287 -250
144 -250 144 -255 -146 -255 -146 2 -466 3 -466 253 -144 252 -145 410 234
410 234 -3 470 -2 469 -405 233 c-223 127 -407 232 -410 232 -3 0 -188 -105
-412 -232z"/>
<path d="M2080 1380 l0 -420 140 0 140 0 0 420 0 420 -140 0 -140 0 0 -420z"/>
<path d="M2506 1646 l-96 -155 2 -200 3 -201 231 342 c127 189 234 349 238
356 6 9 -25 12 -137 12 l-145 0 -96 -154z"/>
<path d="M2940 1710 l0 -90 45 0 45 0 0 -245 0 -245 -45 0 -45 0 0 -85 0 -85
225 0 225 0 0 85 0 85 -40 0 -40 0 0 245 0 245 40 0 40 0 0 90 0 90 -225 0
-225 0 0 -90z"/>
<path d="M3440 1797 c0 -2 23 -66 51 -142 28 -77 93 -257 144 -400 51 -143 96
-268 100 -277 6 -16 23 -18 141 -18 74 0 134 3 134 7 0 4 -50 151 -111 328
-61 176 -125 362 -142 412 l-32 93 -142 0 c-79 0 -143 -1 -143 -3z"/>
<path d="M3996 1583 c-36 -120 -66 -224 -66 -231 0 -17 111 -344 120 -355 5
-6 290 776 290 797 0 3 -62 6 -138 6 l-139 0 -67 -217z"/>
<path d="M4666 1508 c63 -160 114 -293 114 -295 0 -2 -35 -3 -78 -3 l-78 0
-23 -67 c-12 -38 -25 -74 -28 -80 -3 -10 27 -13 134 -13 l139 0 15 -42 16 -43
143 -3 c112 -2 141 0 137 10 -3 7 -78 196 -167 421 l-163 407 -137 0 -138 0
114 -292z"/>
<path d="M5250 1380 l0 -420 140 0 140 0 0 420 0 420 -140 0 -140 0 0 -420z"/>
<path d="M5570 1715 l0 -85 110 0 110 0 0 -130 0 -130 -110 0 -110 0 0 -80 0
-80 51 0 50 0 59 -125 59 -125 152 0 151 0 -14 23 c-8 12 -43 75 -78 140 -35
64 -66 117 -70 117 -4 0 -13 -7 -20 -15 -10 -12 -37 -15 -126 -15 -114 0 -160
14 -82 25 24 3 85 11 136 19 63 9 92 9 92 2 0 -6 29 19 65 54 l65 64 0 131 0
130 -83 83 -82 82 -163 0 -162 0 0 -85z"/>
<path d="M6463 1788 c146 -380 217 -566 217 -571 0 -3 -34 -7 -77 -9 l-76 -3
-24 -69 c-12 -39 -23 -74 -23 -78 0 -4 60 -8 134 -8 l134 0 18 -45 17 -45 142
0 143 0 -167 418 -167 417 -138 3 c-109 2 -137 0 -133 -10z"/>
<path d="M4373 1361 l-151 -401 137 0 136 0 76 233 75 233 -61 168 -62 167
-150 -400z"/>
<path d="M6280 1368 c-78 -211 -145 -389 -147 -395 -4 -10 26 -13 130 -13
l135 0 78 233 77 232 -58 155 c-31 85 -60 158 -64 163 -4 4 -72 -165 -151
-375z"/>
<path d="M2592 1275 l-82 -126 47 -94 48 -95 147 0 c82 0 148 3 148 6 0 7
-167 328 -205 396 l-22 39 -81 -126z"/>
<path d="M4537 818 c-8 -18 -40 -102 -73 -187 -40 -105 -65 -155 -76 -159 -35
-9 -17 -22 32 -22 28 0 50 5 50 10 0 6 -9 10 -21 10 -17 0 -19 4 -13 23 22 70
16 67 107 67 l83 0 16 -45 c17 -44 16 -45 -2 -45 -11 0 -20 -4 -20 -10 0 -6
30 -10 70 -10 40 0 70 4 70 10 0 6 -6 10 -13 10 -8 0 -46 80 -92 190 -45 108
-84 190 -92 190 -7 0 -19 -15 -26 -32z m42 -151 c17 -43 31 -80 31 -82 0 -3
-32 -5 -71 -5 -53 0 -70 3 -66 13 2 6 17 47 33 89 16 43 32 74 35 70 4 -4 21
-42 38 -85z"/>
<path d="M4950 841 c0 -6 14 -11 30 -11 l30 0 0 -180 0 -180 -24 0 c-14 0 -28
-4 -31 -10 -8 -14 209 -13 258 1 50 13 113 71 128 116 19 58 8 155 -23 195
-44 58 -85 71 -235 76 -95 3 -133 1 -133 -7z m255 -25 c44 -19 67 -65 72 -146
9 -136 -38 -200 -147 -200 l-56 0 0 180 1 180 48 0 c26 0 63 -6 82 -14z"/>
<path d="M5560 840 c0 -5 11 -10 25 -10 l25 0 0 -180 0 -180 -25 0 c-14 0 -25
-4 -25 -10 0 -6 27 -10 60 -10 33 0 60 4 60 10 0 6 -11 10 -25 10 l-25 0 0
170 c0 94 2 170 4 170 2 0 36 -78 76 -172 40 -95 76 -176 79 -180 3 -4 37 70
75 165 38 95 73 176 78 181 4 6 8 -67 8 -162 l0 -172 -25 0 c-14 0 -25 -4 -25
-10 0 -6 35 -10 85 -10 50 0 85 4 85 10 0 6 -13 10 -30 10 l-30 0 0 180 0 180
25 0 c14 0 25 5 25 10 0 6 -27 10 -62 10 l-63 0 -59 -145 c-32 -80 -60 -145
-61 -145 -1 0 -29 65 -61 145 l-59 145 -67 0 c-39 0 -68 -4 -68 -10z"/>
<path d="M6270 840 c0 -5 11 -10 25 -10 l25 0 0 -180 0 -180 -25 0 c-14 0 -25
-4 -25 -10 0 -6 35 -10 85 -10 50 0 85 4 85 10 0 6 -11 10 -25 10 l-25 0 0
180 0 180 25 0 c14 0 25 5 25 10 0 6 -35 10 -85 10 -50 0 -85 -4 -85 -10z"/>
<path d="M6660 840 c0 -5 9 -10 20 -10 19 0 20 -7 20 -180 0 -173 -1 -180 -20
-180 -11 0 -20 -4 -20 -10 0 -6 27 -10 60 -10 33 0 60 4 60 10 0 6 -11 10 -25
10 l-25 0 0 160 c0 88 1 160 3 160 2 0 54 -76 117 -170 91 -134 120 -170 138
-170 l22 0 0 190 0 190 25 0 c14 0 25 5 25 10 0 6 -27 10 -60 10 -33 0 -60 -4
-60 -10 0 -5 11 -10 25 -10 l25 0 0 -145 c0 -80 -1 -145 -3 -145 -2 0 -50 70
-108 155 l-104 154 -57 1 c-32 0 -58 -4 -58 -10z"/>
<path d="M2080 635 c0 -13 125 -15 1065 -15 940 0 1065 2 1065 15 0 13 -125
15 -1065 15 -940 0 -1065 -2 -1065 -15z"/>
</g>
</svg>
