<?xml version="1.0" standalone="no"?>
<!DOCTYPE svg PUBLIC "-//W3C//DTD SVG 20010904//EN"
 "http://www.w3.org/TR/2001/REC-SVG-20010904/DTD/svg10.dtd">
<svg version="1.0" xmlns="http://www.w3.org/2000/svg"
 width="328.000000pt" height="141.000000pt" viewBox="0 0 328.000000 141.000000"
 preserveAspectRatio="xMidYMid meet">

<g transform="translate(0.000000,141.000000) scale(0.100000,-0.100000)"
fill="#000000" stroke="none">
<path d="M2150 1220 c-507 -32 -958 -120 -1408 -276 l-133 -47 39 -17 c41 -18
52 -35 52 -76 0 -22 -4 -24 -44 -24 -39 0 -45 3 -48 23 -4 31 -43 31 -43 0 0
-17 17 -34 64 -65 74 -49 90 -79 72 -137 -14 -47 -47 -66 -116 -66 -66 0 -101
19 -116 62 -16 51 -7 65 43 61 39 -3 43 -6 46 -30 3 -22 9 -28 27 -28 55 0 34
55 -35 90 -54 28 -84 65 -84 105 0 19 -2 35 -5 35 -3 0 -46 -23 -95 -50 -284
-158 -381 -311 -268 -424 66 -67 186 -113 374 -143 142 -22 615 -25 808 -5
454 49 900 148 1250 279 127 47 130 49 87 57 -63 12 -77 42 -77 168 0 60 5
118 10 129 36 66 194 62 220 -6 20 -54 14 -65 -35 -65 -38 0 -45 3 -45 20 0
21 -27 40 -47 33 -20 -7 -18 -212 2 -219 23 -9 45 15 45 47 0 19 -5 29 -15 29
-10 0 -15 10 -15 30 l0 31 58 -3 57 -3 0 -73 c0 -39 2 -72 3 -72 2 0 34 17 70
37 241 132 351 258 321 366 -19 69 -133 144 -275 181 -157 40 -495 61 -744 46z
m-431 -341 c35 -12 51 -35 51 -73 0 -24 -3 -26 -44 -26 -39 0 -45 3 -48 23 -4
30 -42 30 -46 1 -2 -17 9 -29 52 -54 67 -38 96 -72 96 -114 0 -49 -21 -80 -65
-94 -88 -29 -175 12 -175 83 0 35 0 35 44 35 41 0 45 -2 48 -27 3 -29 32 -43
50 -25 19 19 -3 51 -57 81 -29 17 -60 40 -69 53 -18 26 -21 70 -5 99 22 42
104 60 168 38z m-743 -36 c3 -21 17 -94 29 -163 13 -69 20 -129 16 -133 -5 -5
-26 -7 -47 -5 l-39 3 -19 133 c-11 72 -21 131 -22 129 -2 -1 -12 -58 -24 -127
-12 -68 -23 -127 -26 -132 -3 -4 -23 -8 -45 -8 -34 0 -39 3 -39 23 0 20 46
273 56 305 2 8 27 12 78 12 l75 0 7 -37z m274 -30 c6 -38 14 -90 19 -118 l7
-50 13 75 c7 41 16 93 20 115 l6 40 73 3 72 3 -2 -168 -3 -168 -40 0 c-33 0
-40 4 -41 20 0 11 -2 67 -3 125 l-3 105 -22 -115 c-11 -63 -25 -121 -29 -127
-9 -15 -73 -18 -81 -4 -3 4 -16 60 -28 122 l-23 114 -5 -120 -5 -120 -40 0
c-38 0 -40 1 -43 35 -2 19 -1 95 3 168 l7 132 68 0 68 0 12 -67z m692 -70 l3
-138 25 0 25 0 3 138 3 137 44 0 45 0 0 -135 c0 -78 -5 -144 -11 -159 -30 -66
-188 -66 -218 0 -6 15 -11 81 -11 159 l0 135 45 0 44 0 3 -137z m393 25 c17
-58 32 -109 35 -111 3 -3 4 46 2 109 l-3 114 45 0 46 0 0 -165 0 -165 -63 0
-63 0 -28 98 c-16 53 -33 104 -37 112 -5 8 -9 -34 -9 -98 l0 -113 -42 3 -43 3
-3 150 c-1 82 0 155 3 163 3 9 22 12 67 10 l63 -3 30 -107z"/>
</g>
</svg>
