<?xml version="1.0" standalone="no"?>
<!DOCTYPE svg PUBLIC "-//W3C//DTD SVG 20010904//EN"
 "http://www.w3.org/TR/2001/REC-SVG-20010904/DTD/svg10.dtd">
<svg version="1.0" xmlns="http://www.w3.org/2000/svg"
 width="73.000000pt" height="77.000000pt" viewBox="0 0 73.000000 77.000000"
 preserveAspectRatio="xMidYMid meet">

<g transform="translate(0.000000,77.000000) scale(0.100000,-0.100000)"
fill="#000000" stroke="none">
<path d="M265 606 c-60 -28 -127 -99 -143 -154 -55 -184 70 -362 255 -362 121
0 232 86 264 203 24 90 -18 220 -91 277 -81 64 -195 79 -285 36z m240 -215
c25 -84 44 -156 41 -158 -3 -3 -10 7 -16 23 -15 45 -34 76 -51 87 -25 16 -63
1 -82 -33 l-19 -31 -22 33 c-15 23 -31 34 -52 36 -35 3 -52 -16 -73 -81 -7
-20 -16 -37 -21 -37 -4 0 7 51 26 113 19 61 40 131 46 155 14 49 24 53 33 15
3 -16 18 -68 34 -118 l28 -90 39 122 c20 68 39 122 40 120 1 -1 23 -71 49
-156z"/>
</g>
</svg>
