<?xml version="1.0" standalone="no"?>
<!DOCTYPE svg PUBLIC "-//W3C//DTD SVG 20010904//EN"
 "http://www.w3.org/TR/2001/REC-SVG-20010904/DTD/svg10.dtd">
<svg version="1.0" xmlns="http://www.w3.org/2000/svg"
 width="420.000000pt" height="112.000000pt" viewBox="0 0 420.000000 112.000000"
 preserveAspectRatio="xMidYMid meet">

<g transform="translate(0.000000,112.000000) scale(0.100000,-0.100000)"
fill="#000000" stroke="none">
<path d="M536 1019 c-57 -14 -102 -52 -122 -105 -15 -39 -16 -54 -6 -105 12
-67 95 -237 176 -364 l51 -80 6 75 c10 122 10 280 -1 370 -11 89 -46 221 -58
219 -4 -1 -25 -5 -46 -10z"/>
<path d="M731 968 c-11 -35 -25 -94 -31 -133 -11 -80 -13 -276 -3 -389 l6 -78
59 91 c132 206 191 357 169 438 -19 71 -65 110 -147 128 -32 6 -32 6 -53 -57z"/>
<path d="M238 843 c-15 -16 -36 -48 -47 -73 -38 -84 -23 -148 50 -215 48 -44
189 -134 287 -184 l62 -32 -46 93 c-62 124 -203 345 -274 431 -3 4 -18 -5 -32
-20z"/>
<path d="M1059 853 c-63 -72 -257 -387 -295 -479 l-15 -36 88 48 c305 166 373
250 309 386 -9 19 -29 49 -44 67 -26 32 -28 32 -43 14z"/>
<path d="M1480 515 l0 -225 45 0 45 0 0 95 0 95 100 0 100 0 0 -95 0 -95 45 0
45 0 0 225 0 225 -45 0 -45 0 0 -90 0 -90 -100 0 -100 0 0 90 0 90 -45 0 -45
0 0 -225z"/>
<path d="M1990 582 c0 -144 2 -162 23 -202 52 -104 228 -124 306 -35 42 49 51
90 51 253 l0 142 -45 0 -45 0 0 -145 c0 -168 -9 -196 -65 -215 -26 -9 -44 -9
-70 0 -60 20 -65 36 -65 207 l0 153 -45 0 -45 0 0 -158z"/>
<path d="M2516 521 c-53 -121 -96 -222 -96 -225 0 -3 19 -6 43 -6 42 0 43 1
64 50 l21 50 102 0 102 0 21 -50 c21 -50 21 -50 68 -50 l47 0 -80 183 c-44
100 -89 201 -99 225 -17 39 -21 42 -57 42 l-39 0 -97 -219z m168 29 c16 -39
26 -73 23 -76 -2 -3 -32 -4 -64 -2 l-60 3 31 72 c17 40 33 73 36 73 3 0 18
-32 34 -70z"/>
<path d="M2861 728 c0 -7 33 -107 73 -223 l73 -210 38 0 38 0 46 137 c25 75
48 139 51 142 3 3 28 -60 55 -139 l50 -145 36 0 36 0 77 220 c42 120 76 222
76 225 0 3 -20 5 -45 5 l-45 0 -47 -150 c-26 -82 -50 -147 -53 -144 -3 3 -25
69 -50 147 l-46 142 -39 0 -39 0 -46 -142 c-25 -78 -48 -145 -51 -147 -3 -3
-27 62 -54 144 l-49 150 -43 0 c-28 0 -43 -4 -42 -12z"/>
<path d="M3590 515 l0 -225 165 0 165 0 0 40 0 40 -120 0 -120 0 0 60 0 60 80
0 80 0 0 40 0 40 -80 0 -80 0 0 45 0 45 115 0 115 0 0 40 0 40 -160 0 -160 0
0 -225z"/>
<path d="M4030 520 l0 -220 45 0 45 0 0 220 0 220 -45 0 -45 0 0 -220z"/>
<path d="M90 506 c0 -56 4 -70 33 -112 54 -79 84 -89 277 -92 l165 -2 -50 31
c-77 49 -409 239 -417 239 -5 0 -8 -29 -8 -64z"/>
<path d="M1195 547 c-22 -13 -98 -57 -170 -97 -71 -41 -157 -91 -190 -112
l-60 -38 156 0 c147 0 158 1 208 26 74 37 104 86 109 175 3 38 0 69 -4 69 -5
0 -27 -11 -49 -23z"/>
<path d="M322 260 l-132 -5 31 -38 c35 -43 76 -67 115 -67 29 0 142 57 189 95
l30 25 -50 -2 c-27 -1 -110 -5 -183 -8z"/>
<path d="M795 260 c3 -5 39 -30 80 -55 92 -58 139 -66 189 -36 33 21 83 78 75
85 -10 8 -349 14 -344 6z"/>
</g>
</svg>
